<svg width="454" height="297" viewBox="0 0 454 297" fill="none" xmlns="http://www.w3.org/2000/svg">
<g clip-path="url(#clip0_138_255)">
<path d="M185.926 19.6021H236.1V20.5584H185.926V19.6021Z" fill="#CCCCCC"/>
<path d="M275.284 19.6021H434.408V20.5584H275.284V19.6021Z" fill="#CCCCCC"/>
<path d="M434.408 39.682C423.588 39.682 414.817 30.9059 414.817 20.08C414.817 9.25413 423.588 0.478027 434.408 0.478027C445.229 0.478027 454 9.25413 454 20.08C454 30.9059 445.229 39.682 434.408 39.682Z" fill="#AD1A2C"/>
<path d="M345.05 39.682C334.23 39.682 325.459 30.9059 325.459 20.08C325.459 9.25413 334.23 0.478027 345.05 0.478027C355.87 0.478027 364.642 9.25413 364.642 20.08C364.642 30.9059 355.87 39.682 345.05 39.682Z" fill="#3F3D56"/>
<path d="M255.694 40.1608C259.664 40.1608 263.544 38.9831 266.845 36.7767C270.145 34.5702 272.718 31.4341 274.237 27.7649C275.756 24.0956 276.153 20.0581 275.379 16.1629C274.604 12.2677 272.693 8.68972 269.886 5.88142C267.079 3.07313 263.503 1.16066 259.61 0.38585C255.717 -0.388957 251.681 0.00869644 248.014 1.52854C244.347 3.04837 241.212 5.62213 239.007 8.92434C236.802 12.2265 235.625 16.1089 235.625 20.0804C235.625 25.4061 237.739 30.5136 241.503 34.2794C245.267 38.0452 250.372 40.1608 255.694 40.1608ZM255.694 0.956343C259.475 0.956343 263.17 2.07795 266.314 4.17933C269.457 6.28071 271.907 9.26749 273.353 12.762C274.8 16.2564 275.179 20.1016 274.441 23.8113C273.704 27.5211 271.883 30.9286 269.21 33.6032C266.537 36.2777 263.131 38.0991 259.423 38.837C255.716 39.5749 251.872 39.1962 248.38 37.7488C244.887 36.3013 241.902 33.8501 239.802 30.7052C237.701 27.5603 236.58 23.8628 236.58 20.0804C236.58 15.0084 238.594 10.1441 242.179 6.55766C245.763 2.9712 250.625 0.956343 255.694 0.956343V0.956343Z" fill="#CCCCCC"/>
<path d="M166.336 40.1608C170.306 40.1608 174.186 38.9831 177.487 36.7767C180.787 34.5702 183.359 31.4341 184.879 27.7649C186.398 24.0956 186.795 20.0581 186.021 16.1629C185.246 12.2677 183.335 8.68972 180.528 5.88142C177.721 3.07313 174.145 1.16066 170.252 0.38585C166.359 -0.388957 162.323 0.00869644 158.656 1.52854C154.989 3.04837 151.854 5.62213 149.649 8.92434C147.444 12.2265 146.266 16.1089 146.266 20.0804C146.266 25.4061 148.381 30.5136 152.145 34.2794C155.909 38.0452 161.014 40.1608 166.336 40.1608ZM166.336 0.956343C170.117 0.956343 173.812 2.07795 176.956 4.17933C180.099 6.28071 182.549 9.26749 183.995 12.762C185.442 16.2564 185.821 20.1016 185.083 23.8113C184.346 27.5211 182.525 30.9286 179.852 33.6032C177.179 36.2777 173.773 38.0991 170.065 38.837C166.358 39.5749 162.514 39.1962 159.022 37.7488C155.529 36.3013 152.544 33.8501 150.444 30.7052C148.343 27.5603 147.222 23.8628 147.222 20.0804C147.222 17.569 147.717 15.0822 148.677 12.762C149.638 10.4417 151.046 8.33349 152.821 6.55766C154.596 4.78182 156.703 3.37315 159.022 2.41208C161.341 1.451 163.826 0.956343 166.336 0.956343Z" fill="#CCCCCC"/>
<path d="M435.917 25.9247C436.261 25.925 436.596 25.8133 436.871 25.6064L436.888 25.5937L440.484 22.8419C440.82 22.5839 441.04 22.2028 441.096 21.7825C441.151 21.3621 441.037 20.9369 440.78 20.6004C440.522 20.2639 440.141 20.0437 439.721 19.9882C439.3 19.9327 438.875 20.0464 438.539 20.3044L436.21 22.0914L430.707 14.9075C430.449 14.5711 430.069 14.351 429.649 14.2955C429.229 14.24 428.804 14.3537 428.468 14.6115V14.6115L428.502 14.6587L428.467 14.6115C428.131 14.8697 427.911 15.2507 427.856 15.6709C427.8 16.091 427.914 16.516 428.171 16.8525L434.645 25.2983C434.795 25.493 434.988 25.6505 435.208 25.7586C435.429 25.8667 435.671 25.9224 435.917 25.9215L435.917 25.9247Z" fill="white"/>
<path d="M105.924 103.94C105.557 104.107 105.205 104.304 104.87 104.528L71.3902 90.2309L70.1958 81.4069L56.8178 81.3247L57.6083 101.564L101.799 113.258C101.892 113.565 102.004 113.866 102.133 114.16C102.772 115.524 103.8 116.669 105.087 117.45C106.374 118.232 107.863 118.616 109.367 118.553C110.872 118.491 112.324 117.985 113.542 117.099C114.76 116.214 115.689 114.988 116.213 113.576C116.737 112.164 116.832 110.628 116.487 109.162C116.141 107.696 115.371 106.364 114.271 105.335C113.172 104.306 111.793 103.624 110.308 103.376C108.823 103.128 107.298 103.325 105.924 103.942L105.924 103.94Z" fill="#FEB8B8"/>
<path d="M51.9528 287.337H61.1045L65.458 252.02H51.9518L51.9528 287.337Z" fill="#FEB8B8"/>
<path d="M67.6411 284.721H49.9918V295.835H78.7538C78.7538 292.887 77.583 290.058 75.499 287.973C73.4149 285.888 70.5884 284.717 67.6411 284.717V284.721Z" fill="#2F2E41"/>
<path d="M16.3615 284.75L25.4682 285.646L33.2612 250.926L19.8196 249.605L16.3615 284.75Z" fill="#FEB8B8"/>
<path d="M32.236 283.687L14.6747 281.956L13.5858 293.019L42.2031 295.839C42.4919 292.905 41.6041 289.977 39.735 287.698C37.866 285.419 35.1687 283.976 32.2365 283.687H32.236Z" fill="#2F2E41"/>
<path d="M49.4055 43.9474C39.2801 43.9474 31.0718 35.7348 31.0718 25.604C31.0718 15.4733 39.2801 7.26074 49.4055 7.26074C59.5309 7.26074 67.7391 15.4733 67.7391 25.604C67.7391 35.7348 59.5309 43.9474 49.4055 43.9474Z" fill="#FEB8B8"/>
<path d="M63.1498 280.194C63.9365 280.196 64.6984 279.919 65.3014 279.414C65.9043 278.908 66.3096 278.206 66.4457 277.431C71.1792 251.127 86.6656 165.104 87.0361 162.719C87.0445 162.664 87.0486 162.609 87.0483 162.554V156.139C87.0489 155.905 86.976 155.677 86.84 155.488L84.7947 152.623C84.6975 152.485 84.5699 152.372 84.4219 152.291C84.2738 152.21 84.1092 152.164 83.9407 152.157C72.2777 151.61 34.0888 150.006 32.244 152.312C30.3912 154.628 31.0496 161.654 31.1991 163.037L31.1916 163.182L14.0333 272.968C13.8989 273.844 14.1147 274.737 14.634 275.455C15.1532 276.172 15.934 276.657 16.8075 276.803L27.5236 278.569C28.3218 278.697 29.1394 278.535 29.8279 278.111C30.5163 277.687 31.0298 277.03 31.2749 276.259C34.5893 265.662 45.7031 230.015 49.555 216.221C49.5758 216.131 49.63 216.051 49.7069 215.998C49.7838 215.945 49.8777 215.923 49.97 215.937C50.0622 215.95 50.1461 215.998 50.2048 216.07C50.2636 216.143 50.293 216.234 50.2871 216.328C50.0947 229.477 49.6298 263.023 49.466 274.61L49.449 275.858C49.4419 276.703 49.7519 277.52 50.3175 278.147C50.8832 278.774 51.6635 279.166 52.5042 279.246L62.8376 280.182C62.9414 280.192 63.0456 280.195 63.1498 280.194V280.194Z" fill="#19477F"/>
<path d="M61.0408 51.1605C64.2402 53.0636 66.1551 56.5601 67.2535 60.1245C69.2875 66.7126 70.5117 73.5242 70.8992 80.4086L72.0608 101.02L86.4343 155.667C73.9761 166.214 66.7912 163.816 50.0215 155.19C33.2517 146.564 31.3358 158.066 31.3358 158.066L27.9827 111.568L23.1918 60.7583C24.2674 59.4627 25.4848 58.2919 26.8211 57.2677C31.2493 53.8217 36.4015 51.4263 41.8893 50.2619C47.3772 49.0975 53.0576 49.1946 58.5025 50.5457L61.0408 51.1605Z" fill="#E6E6E6"/>
<path d="M65.7093 114.976C65.3229 115.121 64.9486 115.296 64.5896 115.499L31.4843 98.9191L30.935 89.9376L17.2793 88.9956L16.5477 109.47L60.7875 124.109C61.1485 125.66 61.9729 127.064 63.1511 128.135C64.3293 129.206 65.8054 129.893 67.3831 130.103C68.9608 130.314 70.5653 130.04 71.9831 129.316C73.4009 128.592 74.5649 127.453 75.3201 126.051C76.0753 124.65 76.386 123.051 76.2108 121.468C76.0356 119.885 75.3829 118.393 74.3395 117.19C73.296 115.988 71.9113 115.131 70.3696 114.735C68.8279 114.34 67.2022 114.423 65.7088 114.974L65.7093 114.976Z" fill="#FEB8B8"/>
<path d="M23.4304 60.9874C15.2859 63.8633 13.8503 95.0246 13.8503 95.0246C23.4325 89.7517 34.9312 98.38 34.9312 98.38C34.9312 98.38 37.3263 90.2302 40.2012 79.685C41.0693 76.7186 41.1731 73.5807 40.503 70.5634C39.833 67.5461 38.4108 64.7475 36.3689 62.428C36.3689 62.428 31.5759 58.1099 23.4304 60.9874Z" fill="#E6E6E6"/>
<path d="M32.9697 30.4534C35.254 28.6251 38.3702 31.9471 38.3702 31.9471L40.1975 15.4957C40.1975 15.4957 51.6183 16.8647 58.9294 15.0385C66.2405 13.2123 67.3813 21.6687 67.3813 21.6687C67.7582 18.2536 67.8347 14.8119 67.6098 11.3834C67.1528 7.26954 61.2142 3.15566 50.7064 0.41289C40.1986 -2.32988 34.7165 9.5551 34.7165 9.5551C27.4027 13.2091 30.6827 32.2839 32.9697 30.4534Z" fill="#2F2E41"/>
<path d="M-6.10352e-05 295.838H390.914V297H-6.10352e-05V295.838Z" fill="#E6E6E6"/>
<path d="M353.203 275.325C351.53 275.914 349.734 276.061 347.988 275.753C346.242 275.445 344.604 274.693 343.233 273.568C339.741 270.636 338.646 265.805 337.756 261.331L335.121 248.1L340.637 251.901C344.604 254.633 348.66 257.454 351.407 261.412C354.154 265.371 355.353 270.775 353.146 275.058" fill="#E6E6E6"/>
<path d="M352.351 292.265C353.045 287.204 353.759 282.078 353.272 276.963C352.84 272.42 351.454 267.983 348.634 264.345C347.137 262.417 345.316 260.766 343.252 259.465C342.713 259.125 342.218 259.978 342.754 260.317C346.326 262.575 349.089 265.91 350.645 269.84C352.362 274.211 352.638 278.976 352.341 283.619C352.162 286.427 351.783 289.216 351.401 292.002C351.371 292.128 351.39 292.261 351.453 292.373C351.517 292.486 351.622 292.57 351.745 292.609C351.871 292.643 352.006 292.626 352.119 292.561C352.233 292.496 352.316 292.39 352.352 292.264L352.351 292.265Z" fill="#F2F2F2"/>
<path d="M347.353 284.144C346.636 285.235 345.65 286.123 344.49 286.722C343.33 287.321 342.036 287.611 340.731 287.564C337.379 287.405 334.584 285.064 332.069 282.843L324.628 276.271L329.552 276.035C333.094 275.865 336.727 275.707 340.102 276.8C343.477 277.893 346.586 280.522 347.203 284.013" fill="#E6E6E6"/>
<path d="M354.313 295.174C350.974 289.257 347.094 282.68 340.167 280.578C338.241 279.996 336.221 279.787 334.217 279.964C333.585 280.017 333.743 280.993 334.376 280.938C337.735 280.659 341.089 281.547 343.871 283.452C346.549 285.275 348.634 287.81 350.398 290.499C351.479 292.143 352.447 293.862 353.415 295.576C353.723 296.124 354.625 295.729 354.313 295.174Z" fill="#F2F2F2"/>
<path d="M118.732 124.434H286.09C286.912 124.433 287.7 124.106 288.281 123.524C288.862 122.943 289.188 122.155 289.189 121.333V79.7966C289.188 78.9745 288.862 78.1864 288.281 77.6051C287.7 77.0238 286.912 76.6968 286.09 76.6958H118.732C117.911 76.6968 117.123 77.0238 116.542 77.6051C115.961 78.1864 115.634 78.9745 115.633 79.7966V121.333C115.634 122.155 115.961 122.943 116.542 123.524C117.123 124.106 117.911 124.433 118.732 124.434ZM286.09 77.9364C286.583 77.937 287.056 78.1332 287.405 78.482C287.753 78.8309 287.949 79.3038 287.95 79.7971V121.333C287.95 121.827 287.753 122.3 287.405 122.649C287.056 122.997 286.583 123.194 286.09 123.194H118.732C118.239 123.194 117.766 122.997 117.418 122.649C117.069 122.3 116.873 121.827 116.873 121.333V79.7966C116.873 79.3032 117.069 78.8302 117.418 78.4814C117.766 78.1325 118.239 77.9363 118.732 77.9359L286.09 77.9364Z" fill="#E6E6E6"/>
<path d="M230.929 90.5498C231.487 90.5498 232.022 90.7716 232.417 91.1664C232.812 91.5612 233.033 92.0967 233.033 92.655C233.033 93.2134 232.812 93.7488 232.417 94.1436C232.022 94.5384 231.487 94.7603 230.929 94.7603H131.737C131.179 94.7603 130.643 94.5384 130.249 94.1436C129.854 93.7488 129.632 93.2134 129.632 92.655C129.632 92.0967 129.854 91.5612 130.249 91.1664C130.643 90.7716 131.179 90.5498 131.737 90.5498H230.929Z" fill="#E6E6E6"/>
<path d="M230.929 103.182C231.487 103.182 232.022 103.403 232.417 103.798C232.812 104.193 233.033 104.729 233.033 105.287C233.033 105.845 232.812 106.381 232.417 106.775C232.022 107.17 231.487 107.392 230.929 107.392H188.246C187.688 107.392 187.153 107.17 186.759 106.775C186.364 106.381 186.142 105.845 186.142 105.287C186.142 104.729 186.364 104.193 186.759 103.798C187.153 103.403 187.688 103.182 188.246 103.182H230.929Z" fill="#E6E6E6"/>
<path d="M259.967 111.506C252.995 111.506 247.343 105.851 247.343 98.8749C247.343 91.8989 252.995 86.2437 259.967 86.2437C266.94 86.2437 272.592 91.8989 272.592 98.8749C272.592 105.851 266.94 111.506 259.967 111.506Z" fill="#E6E6E6"/>
<path d="M261.952 105.895C262.376 105.896 262.789 105.758 263.128 105.504L263.149 105.488L267.58 102.096C267.995 101.778 268.266 101.309 268.335 100.79C268.404 100.272 268.264 99.7479 267.946 99.3329C267.628 98.9179 267.159 98.6462 266.641 98.5776C266.123 98.5089 265.599 98.649 265.184 98.9669L262.314 101.169L255.532 92.316C255.214 91.9016 254.745 91.6303 254.228 91.5619C253.71 91.4935 253.187 91.6335 252.772 91.9511L252.814 92.0095L252.771 91.9511C252.357 92.2693 252.086 92.7387 252.018 93.2564C251.95 93.7741 252.089 94.2978 252.407 94.7125L260.383 105.127C260.568 105.366 260.805 105.56 261.077 105.694C261.348 105.827 261.647 105.896 261.95 105.895L261.952 105.895Z" fill="#19477F"/>
</g>
<defs>
<clipPath id="clip0_138_255">
<rect width="454" height="297" fill="white" transform="matrix(-1 0 0 1 454 0)"/>
</clipPath>
</defs>
</svg>
